
<svg width="1000" height="1000" viewBox="0 0 1000 1000" xmlns="http://www.w3.org/2000/svg">
    <style>
    .red{
      	fill: #cb3c33;
    }

    .green{
      	fill: #389826;
    }

    .blue{
        fill: none;
      	stroke: #306998;
		stroke-width: 5px;
    }

    .violet{
      	fill: #9558b2;
    }

    .title{
        stroke-linecap: round;
        fill-rule: evenodd;
        font-size: 9pt;
        font-size: 180px;
        text-anchor: middle;
        fill: #306998;
        stroke: #306998;
        stroke-width: 0.25mm;
    }

    .mask{
        stroke-width: 5mm;
        fill: #000;
        stroke: #000;
    }

    .clear{
        fill: white;
    }

  	</style>


    <!-- FRAME -->
    <mask id="textmask">
        <rect width="100%" height="100%" fill="#fff"></rect>
        <g transform="translate(111.170, 193)">
            <path class="mask title" d="M 629 45 L 635.2 45 L 632 0 L 628 0 C 625.272 11.109 618.365 2.657 597.658 0.552 A 84.68 84.68 0 0 0 596 0.4 C 575.6 -1 544.8 4 543 35.4 A 39.988 39.988 0 0 0 542.944 37.502 C 542.944 62.609 567.33 73.678 586.6 83.8 A 1067.646 1067.646 0 0 0 586.736 83.869 C 608.259 94.826 622.194 101.036 619.2 118 C 617.203 128.583 606.036 137.371 588.088 136.405 A 51.726 51.726 0 0 1 588 136.4 C 574 135.6 564.2 130.6 562.4 121.4 A 24.891 24.891 0 0 1 562.091 119.433 C 560.79 108.107 568.862 103.548 576.934 103.759 A 20.664 20.664 0 0 1 577.8 103.8 A 13.354 13.354 0 0 0 577.308 100.317 C 575.814 94.813 570.963 88.763 563.418 85.833 A 26.349 26.349 0 0 0 556.6 84.2 A 24.399 24.399 0 0 0 554.302 84.091 C 540.587 84.091 529.988 95.91 533.4 112.4 C 536.301 126.755 551.446 136.445 569.664 140.938 A 100.165 100.165 0 0 0 587.2 143.6 A 80.877 80.877 0 0 0 592.165 143.752 C 607.565 143.752 623.977 139.429 635.162 130.157 A 36.381 36.381 0 0 0 648.4 107.4 A 45.961 45.961 0 0 0 648.887 103.353 C 650.516 81.42 634.151 71.124 617.786 62.251 A 15553.784 15553.784 0 0 0 611 58.6 C 595.8 50 569.8 40.6 570.8 24.4 C 571.4 12.4 583.6 6.4 596 7.6 C 612.572 9.17 621.232 17.891 626.758 36.284 A 121.957 121.957 0 0 1 629 45 Z M 212.2 69.8 L 196.8 108.2 L 179 69.8 C 175.076 60.187 177.311 56.925 185.702 56.804 A 34.462 34.462 0 0 1 186.2 56.8 L 186.2 51.4 L 127.8 51.4 L 127.8 56.8 A 22.954 22.954 0 0 1 132.746 57.289 C 138.091 58.467 141.13 61.732 143.8 66.6 L 183 143.8 A 75.694 75.694 0 0 1 179.017 152.108 C 175.511 158.324 171.745 162.338 167.692 164.676 A 19.612 19.612 0 0 1 160 167.2 A 27.589 27.589 0 0 1 158.053 167.275 C 150.845 167.292 145.509 164.282 142.2 158.4 A 16.743 16.743 0 0 0 140.46 159.351 C 134.411 163.12 127.79 172.046 131.8 182.8 C 134.6 190 142.4 193 149.4 193 A 27.191 27.191 0 0 0 170.129 181.905 C 178.324 172.253 184.17 157.935 188.949 145.717 A 6105.556 6105.556 0 0 0 190.4 142 L 219.4 69.8 A 30.382 30.382 0 0 1 222.839 63.24 C 225.791 59.163 229.925 56.8 236.8 56.8 L 236.8 51.4 L 201.6 51.4 L 201.6 56.8 A 48.229 48.229 0 0 1 206.055 56.975 C 212.887 57.618 215.648 60.262 212.679 68.54 A 37.38 37.38 0 0 1 212.2 69.8 Z M 449.8 2 L 391 2 L 391 7.6 A 24.901 24.901 0 0 1 397.921 8.48 C 405.284 10.608 408.355 16.404 409.375 23.73 A 50.124 50.124 0 0 1 409.8 30.6 L 409.8 113.6 C 409.8 126.2 406.4 136.6 391 136.6 L 391 142 L 457 142 A 166.979 166.979 0 0 0 482.678 140.197 C 500.894 137.342 514.216 131.053 521.156 121.028 A 31.591 31.591 0 0 0 526.6 102.6 C 526.6 85.671 515.962 74.458 496.667 68.537 A 91.525 91.525 0 0 0 489.2 66.6 C 505.4 61.4 515.6 51.8 515.6 36.6 A 28.063 28.063 0 0 0 497.694 9.634 C 488.578 5.321 476.069 2.936 460.37 2.227 A 234.634 234.634 0 0 0 449.8 2 Z M 56.4 2 L 0 2 L 0 7.6 C 10.811 7.6 15.754 12.861 17.707 20.433 A 41.179 41.179 0 0 1 18.8 30.6 L 18.8 113.6 A 39.096 39.096 0 0 1 17.429 124.761 C 15.822 130.078 12.589 134.121 6.645 135.778 A 24.722 24.722 0 0 1 0 136.6 L 0 142 L 75.4 142 L 75.4 136.6 A 32.112 32.112 0 0 1 66.308 135.424 C 57.169 132.723 52.6 125.386 52.6 113.6 L 52.6 88.6 L 56.4 88.6 A 150.864 150.864 0 0 0 79.256 87.013 C 97.859 84.147 110.664 77.442 117.616 67.216 A 37.92 37.92 0 0 0 123.8 45.4 C 123.8 17.971 102.419 2.841 60.025 2.034 A 190.515 190.515 0 0 0 56.4 2 Z M 709.4 2 L 653 2 L 653 7.6 C 663.811 7.6 668.754 12.861 670.707 20.433 A 41.179 41.179 0 0 1 671.8 30.6 L 671.8 113.6 A 39.096 39.096 0 0 1 670.429 124.761 C 668.822 130.078 665.589 134.121 659.645 135.778 A 24.722 24.722 0 0 1 653 136.6 L 653 142 L 728.4 142 L 728.4 136.6 A 32.112 32.112 0 0 1 719.308 135.424 C 710.169 132.723 705.6 125.386 705.6 113.6 L 705.6 88.6 L 709.4 88.6 A 150.864 150.864 0 0 0 732.256 87.013 C 750.859 84.147 763.664 77.442 770.616 67.216 A 37.92 37.92 0 0 0 776.8 45.4 C 776.8 17.971 755.419 2.841 713.025 2.034 A 190.515 190.515 0 0 0 709.4 2 Z M 300.6 2 L 238.8 2 L 238.8 7.6 C 249.611 7.6 254.554 12.861 256.507 20.433 A 41.179 41.179 0 0 1 257.6 30.6 L 257.6 113.6 A 39.096 39.096 0 0 1 256.229 124.761 C 254.622 130.078 251.389 134.121 245.445 135.778 A 24.722 24.722 0 0 1 238.8 136.6 L 238.8 142 L 300.6 142 A 134.294 134.294 0 0 0 333.048 138.352 C 345.03 135.364 355.038 130.616 363.051 124.389 A 63.513 63.513 0 0 0 387 72 C 387 35.603 364.431 9.1 320.109 3.225 A 148.598 148.598 0 0 0 300.6 2 Z M 299.8 134.2 L 291.4 134.2 L 291.4 10 L 299.8 10 A 61.512 61.512 0 0 1 323.091 14.022 C 341.569 21.553 351.6 39.981 351.6 72 C 351.6 111.622 336.24 130.597 308.521 133.731 A 77.688 77.688 0 0 1 299.8 134.2 Z M 456.2 134.2 L 443.8 134.2 L 443.8 71.2 L 456.2 71.2 A 47.927 47.927 0 0 1 469.129 72.825 C 482.613 76.601 489.429 86.649 490.303 99.668 A 43.782 43.782 0 0 1 490.4 102.6 A 34.499 34.499 0 0 1 486.408 119.569 C 481.676 128.031 472.659 133.5 458.942 134.137 A 59.061 59.061 0 0 1 456.2 134.2 Z M 55.6 80.6 L 52.6 80.6 L 52.6 10 L 55.6 10 C 79.2 10 88.4 23.6 88.4 45.4 A 52.906 52.906 0 0 1 86.484 60.39 C 83.629 70.008 77.445 76.644 67.008 79.302 A 46.239 46.239 0 0 1 55.6 80.6 Z M 708.6 80.6 L 705.6 80.6 L 705.6 10 L 708.6 10 C 732.2 10 741.4 23.6 741.4 45.4 A 52.906 52.906 0 0 1 739.484 60.39 C 736.629 70.008 730.445 76.644 720.008 79.302 A 46.239 46.239 0 0 1 708.6 80.6 Z M 452.2 63.4 L 443.8 63.4 L 443.8 10 L 454.6 10 C 475.4 10 481.8 22.6 481.8 36.6 A 31.73 31.73 0 0 1 479.481 49.212 C 475.628 58.144 466.845 63.4 452.2 63.4 Z" vector-effect="non-scaling-stroke"/> />
        </g>
    </mask>

    <g mask="url(#textmask)">
        <!-- BLUE -->
        <!-- 725 increment by 25 -->
        <path class="blue" d='
                              M   0  -1350  S 500 1675  1000  -1350
                              M   0  -1300  S 500 1675  1000  -1300
                              M   0  -1250  S 500 1675  1000  -1250
                              M   0  -1200  S 500 1675  1000  -1200
                              M   0  -1150  S 500 1675  1000  -1150
                              M   0  -1100  S 500 1675  1000  -1100
                              M   0  -1050  S 500 1675  1000  -1050
                              M   0  -1000  S 500 1675  1000  -1000
                              M   0  -950  S 500 1675  1000  -950
                              M   0  -900  S 500 1675  1000  -900
                              M   0  -850  S 500 1675  1000  -850
                              M   0  -800  S 500 1675  1000  -800
                              M   0  -750  S 500 1675  1000  -750
                              M   0  -700  S 500 1675  1000  -700
                              M   0  -650  S 500 1675  1000  -650
                              M   0  -600  S 500 1695  1000  -600
                              M   0  -550  S 500 1695  1000  -550
                              M   0  -500  S 500 1705  1000  -500 
                              M   0  -450 S 500  1715  1000  -450
                              M   0  -400 S 500  1725  1000  -400 
                              M   0  -350 S 500  1735  1000  -350
                              M   0  -300 S 500  1745  1000  -300
                              M   0  -250  S 500 1755  1000  -250 
                              M   0  -200 S 500  1765  1000  -200
                              M   0  -150 S 500  1775  1000  -150 
                              M   0  -100 S 500  1785  1000  -100 
                              M   0  -50 S 500   1795  1000  -50 
                              M   0  0   S 500   1805  1000  0  
                              M   0  50  S 500   1815  1000  50 
                              M   0  100 S 500   1825  1000  100
                              M   0  150 S 500   1835  1000  150 
                              M   0  200 S 500   1845  1000  200 
                              M   0  250 S 500   1855  1000  250 
                              M   0  300 S 500   1865  1000  300 
                              M   0  350 S 500   1875  1000  350
                              M   0  400 S 500   1885  1000  400 
                              M   0  450 S 500   1895  1000  450
                              M   0  500 S 500   1905  1000  500  
                              M   0  550 S 500   1915  1000  550 
                              M   0  600 S 500   1925  1000  600  
                              M   0  650 S 500   1935  1000  650 
                              M   0  700 S 500   1945  1000  700 
                              M   0  750 S 500   1955  1000  750 
                              M   0  800 S 500   1965  1000  800  
                              M   0  850 S 500   1975  1000  850 
                              M   0  900 S 500   1985  1000  900  
                              M   0  950 S 500   1995  1000  950 ' />
    </g>

    <g transform="translate(111.170, 193)">
      <path class="title" d="M 629 45 L 635.2 45 L 632 0 L 628 0 C 625.272 11.109 618.365 2.657 597.658 0.552 A 84.68 84.68 0 0 0 596 0.4 C 575.6 -1 544.8 4 543 35.4 A 39.988 39.988 0 0 0 542.944 37.502 C 542.944 62.609 567.33 73.678 586.6 83.8 A 1067.646 1067.646 0 0 0 586.736 83.869 C 608.259 94.826 622.194 101.036 619.2 118 C 617.203 128.583 606.036 137.371 588.088 136.405 A 51.726 51.726 0 0 1 588 136.4 C 574 135.6 564.2 130.6 562.4 121.4 A 24.891 24.891 0 0 1 562.091 119.433 C 560.79 108.107 568.862 103.548 576.934 103.759 A 20.664 20.664 0 0 1 577.8 103.8 A 13.354 13.354 0 0 0 577.308 100.317 C 575.814 94.813 570.963 88.763 563.418 85.833 A 26.349 26.349 0 0 0 556.6 84.2 A 24.399 24.399 0 0 0 554.302 84.091 C 540.587 84.091 529.988 95.91 533.4 112.4 C 536.301 126.755 551.446 136.445 569.664 140.938 A 100.165 100.165 0 0 0 587.2 143.6 A 80.877 80.877 0 0 0 592.165 143.752 C 607.565 143.752 623.977 139.429 635.162 130.157 A 36.381 36.381 0 0 0 648.4 107.4 A 45.961 45.961 0 0 0 648.887 103.353 C 650.516 81.42 634.151 71.124 617.786 62.251 A 15553.784 15553.784 0 0 0 611 58.6 C 595.8 50 569.8 40.6 570.8 24.4 C 571.4 12.4 583.6 6.4 596 7.6 C 612.572 9.17 621.232 17.891 626.758 36.284 A 121.957 121.957 0 0 1 629 45 Z M 212.2 69.8 L 196.8 108.2 L 179 69.8 C 175.076 60.187 177.311 56.925 185.702 56.804 A 34.462 34.462 0 0 1 186.2 56.8 L 186.2 51.4 L 127.8 51.4 L 127.8 56.8 A 22.954 22.954 0 0 1 132.746 57.289 C 138.091 58.467 141.13 61.732 143.8 66.6 L 183 143.8 A 75.694 75.694 0 0 1 179.017 152.108 C 175.511 158.324 171.745 162.338 167.692 164.676 A 19.612 19.612 0 0 1 160 167.2 A 27.589 27.589 0 0 1 158.053 167.275 C 150.845 167.292 145.509 164.282 142.2 158.4 A 16.743 16.743 0 0 0 140.46 159.351 C 134.411 163.12 127.79 172.046 131.8 182.8 C 134.6 190 142.4 193 149.4 193 A 27.191 27.191 0 0 0 170.129 181.905 C 178.324 172.253 184.17 157.935 188.949 145.717 A 6105.556 6105.556 0 0 0 190.4 142 L 219.4 69.8 A 30.382 30.382 0 0 1 222.839 63.24 C 225.791 59.163 229.925 56.8 236.8 56.8 L 236.8 51.4 L 201.6 51.4 L 201.6 56.8 A 48.229 48.229 0 0 1 206.055 56.975 C 212.887 57.618 215.648 60.262 212.679 68.54 A 37.38 37.38 0 0 1 212.2 69.8 Z M 449.8 2 L 391 2 L 391 7.6 A 24.901 24.901 0 0 1 397.921 8.48 C 405.284 10.608 408.355 16.404 409.375 23.73 A 50.124 50.124 0 0 1 409.8 30.6 L 409.8 113.6 C 409.8 126.2 406.4 136.6 391 136.6 L 391 142 L 457 142 A 166.979 166.979 0 0 0 482.678 140.197 C 500.894 137.342 514.216 131.053 521.156 121.028 A 31.591 31.591 0 0 0 526.6 102.6 C 526.6 85.671 515.962 74.458 496.667 68.537 A 91.525 91.525 0 0 0 489.2 66.6 C 505.4 61.4 515.6 51.8 515.6 36.6 A 28.063 28.063 0 0 0 497.694 9.634 C 488.578 5.321 476.069 2.936 460.37 2.227 A 234.634 234.634 0 0 0 449.8 2 Z M 56.4 2 L 0 2 L 0 7.6 C 10.811 7.6 15.754 12.861 17.707 20.433 A 41.179 41.179 0 0 1 18.8 30.6 L 18.8 113.6 A 39.096 39.096 0 0 1 17.429 124.761 C 15.822 130.078 12.589 134.121 6.645 135.778 A 24.722 24.722 0 0 1 0 136.6 L 0 142 L 75.4 142 L 75.4 136.6 A 32.112 32.112 0 0 1 66.308 135.424 C 57.169 132.723 52.6 125.386 52.6 113.6 L 52.6 88.6 L 56.4 88.6 A 150.864 150.864 0 0 0 79.256 87.013 C 97.859 84.147 110.664 77.442 117.616 67.216 A 37.92 37.92 0 0 0 123.8 45.4 C 123.8 17.971 102.419 2.841 60.025 2.034 A 190.515 190.515 0 0 0 56.4 2 Z M 709.4 2 L 653 2 L 653 7.6 C 663.811 7.6 668.754 12.861 670.707 20.433 A 41.179 41.179 0 0 1 671.8 30.6 L 671.8 113.6 A 39.096 39.096 0 0 1 670.429 124.761 C 668.822 130.078 665.589 134.121 659.645 135.778 A 24.722 24.722 0 0 1 653 136.6 L 653 142 L 728.4 142 L 728.4 136.6 A 32.112 32.112 0 0 1 719.308 135.424 C 710.169 132.723 705.6 125.386 705.6 113.6 L 705.6 88.6 L 709.4 88.6 A 150.864 150.864 0 0 0 732.256 87.013 C 750.859 84.147 763.664 77.442 770.616 67.216 A 37.92 37.92 0 0 0 776.8 45.4 C 776.8 17.971 755.419 2.841 713.025 2.034 A 190.515 190.515 0 0 0 709.4 2 Z M 300.6 2 L 238.8 2 L 238.8 7.6 C 249.611 7.6 254.554 12.861 256.507 20.433 A 41.179 41.179 0 0 1 257.6 30.6 L 257.6 113.6 A 39.096 39.096 0 0 1 256.229 124.761 C 254.622 130.078 251.389 134.121 245.445 135.778 A 24.722 24.722 0 0 1 238.8 136.6 L 238.8 142 L 300.6 142 A 134.294 134.294 0 0 0 333.048 138.352 C 345.03 135.364 355.038 130.616 363.051 124.389 A 63.513 63.513 0 0 0 387 72 C 387 35.603 364.431 9.1 320.109 3.225 A 148.598 148.598 0 0 0 300.6 2 Z M 299.8 134.2 L 291.4 134.2 L 291.4 10 L 299.8 10 A 61.512 61.512 0 0 1 323.091 14.022 C 341.569 21.553 351.6 39.981 351.6 72 C 351.6 111.622 336.24 130.597 308.521 133.731 A 77.688 77.688 0 0 1 299.8 134.2 Z M 456.2 134.2 L 443.8 134.2 L 443.8 71.2 L 456.2 71.2 A 47.927 47.927 0 0 1 469.129 72.825 C 482.613 76.601 489.429 86.649 490.303 99.668 A 43.782 43.782 0 0 1 490.4 102.6 A 34.499 34.499 0 0 1 486.408 119.569 C 481.676 128.031 472.659 133.5 458.942 134.137 A 59.061 59.061 0 0 1 456.2 134.2 Z M 55.6 80.6 L 52.6 80.6 L 52.6 10 L 55.6 10 C 79.2 10 88.4 23.6 88.4 45.4 A 52.906 52.906 0 0 1 86.484 60.39 C 83.629 70.008 77.445 76.644 67.008 79.302 A 46.239 46.239 0 0 1 55.6 80.6 Z M 708.6 80.6 L 705.6 80.6 L 705.6 10 L 708.6 10 C 732.2 10 741.4 23.6 741.4 45.4 A 52.906 52.906 0 0 1 739.484 60.39 C 736.629 70.008 730.445 76.644 720.008 79.302 A 46.239 46.239 0 0 1 708.6 80.6 Z M 452.2 63.4 L 443.8 63.4 L 443.8 10 L 454.6 10 C 475.4 10 481.8 22.6 481.8 36.6 A 31.73 31.73 0 0 1 479.481 49.212 C 475.628 58.144 466.845 63.4 452.2 63.4 Z" vector-effect="non-scaling-stroke"/>
    </g>
    <!-- Tail-->
    <path d='M 500 400 C 600 450,
                         400 500,
                         500 550' fill="none" stroke="#FFD43B" stroke-width="22.5" stroke-linecap="round" stroke-linejoin="round"/>
    <!-- Body 1 -->
    <path d='M 500 551.5
                         S600 600, 500 650' fill="none" stroke="#FFD43B" stroke-width="30" stroke-linecap="round" stroke-linejoin="round" />
    <!-- Body 2 -->
    <path d='M 500 652
                         S400 700, 500 750' fill="none" stroke="#FFD43B" stroke-width="37.5" stroke-linecap="round" stroke-linejoin="round"/>

    <!-- Body 3 -->
    <path d='M 500 752
                         S600 800, 500 850' fill="none" stroke="#FFD43B" stroke-width="42" stroke-linecap="round" stroke-linejoin="round"/>

    <!-- Body 4 -->
    <path d='M 500 855
                         S450 900, 500 950' fill="none" stroke="#FFD43B" stroke-width="47.5" stroke-linecap="round" stroke-linejoin="round"/>

    <ellipse cx="500" cy="950" rx="35" ry="20" fill="#FFD43B" />

    <circle cx="490" cy="945" r="4" fill="white" />
    <circle cx="510" cy="945" r="4" fill="white" />
</svg>